<?xml version="1.0" encoding="UTF-8"?>
<svg width="362px" height="56px" viewBox="0 0 362 56" version="1.1" xmlns="http://www.w3.org/2000/svg" xmlns:xlink="http://www.w3.org/1999/xlink">
    <!-- Generator: Sketch 52.6 (67491) - http://www.bohemiancoding.com/sketch -->
    <title>Logo</title>
    <desc>Created with Sketch.</desc>
    <g id="Logo" stroke="none" stroke-width="1" fill="none" fill-rule="evenodd">
        <g fill="#E50914">
            <path d="M181,0.334591033 L193.872,0.336766545 L193.872,7.99377431 L181,7.94213451 L181,0.334591033 Z M192.016,21.2319463 L192.016,28.4568288 L181,28.2993573 L181,21.1144552 L192.016,21.2319463 Z M194.32,43.3108235 L194.32,50.9695528 L181,50.6289062 L181,43.0213628 L194.32,43.3108235 Z M202.976,0.338305223 L211.424,0.33973303 L232.288,38.354708 L232.416,38.3571253 L232.416,0.343280914 L240.032,0.344568104 L240.032,52.1385946 L231.584,51.9225449 L210.784,13.8531194 L210.592,13.8517958 L210.592,51.3856941 L202.976,51.190922 L202.976,0.338305223 Z M247.152,0.345771463 L284.144,0.352023527 L284.144,8.35592688 L269.616,8.29764355 L269.616,52.8951778 L261.616,52.6905853 L261.616,8.26554921 L247.152,8.20752263 L247.152,0.345771463 Z M297.792,0.354330192 L306.304,0.355768816 L323.904,54.2835428 L315.328,54.0642196 L311.04,39.7668551 L292.8,39.4230457 L288.512,53.3784254 L280.256,53.1672859 L297.792,0.354330192 Z M294.976,32.3869764 L308.928,32.6027996 L302.08,9.54910843 L301.888,9.54823569 L294.976,32.3869764 Z M330.256,0.359816973 L338.256,0.361169063 L338.256,46.4387379 L361.488,46.9435991 L361.488,55.2447186 L330.256,54.4459893 L330.256,0.359816973 Z" id="Second-Half"></path>
            <path d="M181,7.90690014 L168.976,7.95279728 L168.976,21.1428025 L181,21.0207833 L181,28.1738105 L168.976,28.3373508 L168.976,43.0791214 L181,42.8305034 L181,50.4042969 L160.976,50.8915435 L160.976,0.336326722 L181,0.333106658 L181,7.90690014 Z M0.864,0.362074375 L33.76,0.356784361 L33.76,8.46893404 L8.864,8.56396525 L8.864,22.7676149 L31.904,22.5338056 L31.904,30.2016894 L8.864,30.5150602 L8.864,46.3897275 L34.208,45.8656943 L34.208,53.976206 L0.864,54.7875699 L0.864,0.362074375 Z M43.056,0.355289469 L54.32,0.353478102 L66.928,41.7116377 L67.056,41.7091947 L79.344,0.349453986 L90.48,0.347663203 L90.48,52.606932 L82.864,52.7922531 L82.864,12.3212528 L82.736,12.3219797 L70.064,53.1037172 L63.472,53.2641212 L50.8,12.5033488 L50.672,12.5040757 L50.672,53.5755853 L43.056,53.7609064 L43.056,0.355289469 Z M101.952,0.345818387 L113.216,0.34400702 L125.824,40.5875699 L125.952,40.5851269 L138.24,0.339982904 L149.376,0.338192121 L149.376,51.1738078 L141.76,51.359129 L141.76,11.9867741 L141.632,11.987501 L128.96,51.6705931 L122.368,51.8309971 L109.696,12.1688701 L109.568,12.169597 L109.568,52.1424612 L101.952,52.3277823 L101.952,0.345818387 Z" id="First-Half"></path>
        </g>
    </g>
</svg>